<svg
                viewBox="0 0 500 500"
                width="500"
                height="500"
                xmlns="http://www.w3.org/2000/svg"
                xmlns:xlink="http://www.w3.org/1999/xlink"
            >
                    <defs></defs>
                <g transform="matrix(6.7655158042907715, 0, 0, 6.7655158042907715, -88.24823770920466, -6.534151091289814)" style=""><circle fill="#F7B26A" cx="70.72" cy="20.14" r="13.28" style="fill: rgb(255, 137, 13);" transform="matrix(1, 0, 0, 1.4438402652740479, 0, -8.938942909240723)"></circle><ellipse transform="matrix(0.7071 -0.7071 0.7071 0.7071 6.475 55.9078)" fill="#FFFFFF" cx="70.72" cy="20.14" rx="7.24" ry="7.24"></ellipse></g><g transform="matrix(6.765516281127931, 0, 0, 6.765516281127931, -368.6112671891852, -6.534151091289807)" style=""><circle fill="#F7B26A" cx="70.72" cy="20.14" r="13.28" style="fill: rgb(255, 137, 13);" transform="matrix(1, 0, 0, 1.4438402652740479, 0, -8.938942909240723)"></circle><ellipse transform="matrix(0.7071 -0.7071 0.7071 0.7071 6.475 55.9078)" fill="#FFFFFF" cx="70.72" cy="20.14" rx="7.24" ry="7.24"></ellipse></g><g transform="matrix(6.7655158042907715, 0, 0, 6.7655158042907715, -88.24823770920466, -6.534151091289814)" style=""><path fill="#F7B26A" d="M84,63.11V20.14H16v42.97c9.45-7.98,20.66-12.79,34-12.79S74.55,55.13,84,63.11z" style="" transform="matrix(1.0001469850540161, 0, 0, 1.0001469850540161, -0.002351246541365981, -0.0029596316162496805)"></path><path fill="#FFF7E9" d="M32.59,90.14h34.83c9.16,0,16.59-7.43,16.59-16.59V63.11c-9.45-7.98-20.66-12.79-34-12.79 s-24.55,4.82-34,12.79v10.45C16,82.71,23.43,90.14,32.59,90.14z" style="" transform="matrix(1, 0, 0, 0.6165241599082947, 0, 19.296504974365234)"></path></g><g transform="matrix(6.7655158042907715, 0, 0, 6.7655158042907715, -88.24823770920466, -6.534151091289814)" style=""><path d="M55.74,49.58c0,3.17-2.57,5.74-5.74,5.74s-5.74-2.57-5.74-5.74s2.57-3.41,5.74-3.41S55.74,46.41,55.74,49.58z"></path></g><g transform="matrix(6.7655158042907715, 0, 0, 6.7655158042907715, -88.24823770920466, -6.534151091289814)" style=""><path fill="#FFFFFF" d="M66.02,30.42v-0.85c0-1.13-0.92-2.05-2.05-2.05h-3.15c-1.13,0-2.05,0.92-2.05,2.05v0.85 c0,1.13,0.92,2.05,2.05,2.05h3.15C65.1,32.47,66.02,31.55,66.02,30.42z"></path><circle cx="65.86" cy="41.37" r="5.5"></circle></g><g transform="matrix(6.7655158042907715, 0, 0, 6.7655158042907715, -88.24823770920466, -6.534151091289814)" style=""><path fill="#FFFFFF" d="M33.98,30.42v-0.85c0-1.13,0.92-2.05,2.05-2.05h3.15c1.13,0,2.05,0.92,2.05,2.05v0.85 c0,1.13-0.92,2.05-2.05,2.05h-3.15C34.9,32.47,33.98,31.55,33.98,30.42z"></path><circle cx="33.98" cy="41.37" r="5.5"></circle></g></svg>